<?xml version="1.0" encoding="UTF-8" ?>
<!DOCTYPE svg PUBLIC "-//W3C//DTD SVG 1.1//EN" "http://www.w3.org/Graphics/SVG/1.1/DTD/svg11.dtd">
<svg width="733pt" height="234pt" viewBox="0 0 733 234" version="1.1" xmlns="http://www.w3.org/2000/svg">
<g id="#ffffffff">
</g>
<g id="#fffff">
<path fill="#fff" opacity="1.00" d=" M 45.28 46.29 C 72.19 46.25 99.11 46.21 126.03 46.31 C 135.06 48.08 144.43 50.37 151.81 56.20 C 162.16 63.49 168.91 75.10 171.44 87.38 C 171.98 93.48 171.98 99.67 171.45 105.77 C 169.22 116.82 163.68 127.61 154.52 134.46 C 148.32 139.38 140.81 142.54 133.03 143.87 C 134.07 146.93 136.88 148.84 138.69 151.42 C 148.85 163.23 159.06 174.99 169.16 186.86 C 171.76 189.59 174.18 192.49 176.23 195.66 C 164.63 195.76 153.02 195.81 141.42 195.67 C 122.59 172.82 103.59 150.10 84.67 127.32 C 82.79 125.24 83.80 122.20 83.53 119.67 C 94.35 119.71 105.18 119.63 116.00 119.69 C 119.02 119.69 122.07 119.80 125.04 119.17 C 132.99 117.96 139.93 111.89 142.33 104.23 C 145.37 96.15 142.46 86.53 136.04 80.93 C 131.62 76.47 125.12 75.13 119.06 75.22 C 104.18 75.30 89.30 74.97 74.44 75.44 C 74.24 110.29 74.41 145.15 74.35 180.00 C 74.28 185.25 74.57 190.51 74.15 195.75 C 64.53 195.71 54.92 195.82 45.30 195.69 C 45.22 145.89 45.27 96.09 45.28 46.29 Z" />
<path fill="#fff" opacity="1.00" d=" M 335.35 46.34 C 356.24 46.19 377.14 46.25 398.04 46.30 C 406.36 47.75 414.80 49.15 422.65 52.42 C 446.65 62.54 464.89 85.90 467.59 111.96 C 467.95 115.92 469.06 119.87 468.47 123.88 C 467.42 129.94 467.38 136.19 465.25 142.04 C 462.17 153.84 455.35 164.27 447.28 173.27 C 440.59 179.79 432.84 185.24 424.38 189.23 C 416.92 192.34 409.04 194.53 401.06 195.73 C 379.20 195.70 357.33 195.90 335.47 195.61 C 335.20 145.86 335.45 96.10 335.35 46.34 M 363.91 75.32 C 363.32 80.53 363.71 85.77 363.61 91.00 C 363.69 116.42 363.46 141.84 363.72 167.25 C 374.16 167.38 384.60 167.36 395.04 167.27 C 402.34 166.36 409.85 165.02 416.21 161.10 C 421.03 158.11 425.74 154.69 429.12 150.06 C 441.32 135.87 442.80 113.84 433.18 97.89 C 426.97 88.06 417.40 80.01 406.04 76.96 C 401.19 75.40 396.06 75.38 391.02 75.25 C 381.99 75.25 372.95 75.18 363.91 75.32 Z" />
<path fill="#fff" opacity="1.00" d=" M 608.52 48.65 C 615.26 48.71 622.00 48.75 628.74 48.60 C 629.02 97.64 628.79 146.69 628.84 195.73 C 619.53 195.71 610.22 195.76 600.91 195.70 C 600.27 164.07 600.99 132.39 600.56 100.75 C 597.65 103.16 595.63 106.40 593.27 109.31 C 582.76 121.95 572.72 134.98 562.05 147.48 C 559.10 147.42 555.32 148.54 553.41 145.56 C 542.99 132.67 532.48 119.83 522.07 106.92 C 520.60 104.94 519.12 102.91 516.92 101.68 C 516.31 133.00 516.89 164.35 516.57 195.69 C 507.02 195.78 497.47 195.73 487.92 195.71 C 487.53 146.75 487.74 97.77 487.81 48.80 C 494.21 48.66 500.62 48.63 507.02 48.73 C 508.44 48.60 509.53 49.67 510.45 50.60 C 526.27 69.91 542.30 89.05 558.18 108.31 C 563.48 104.21 566.85 98.22 571.38 93.36 C 583.84 78.52 596.02 63.46 608.52 48.65 Z" />
<path fill="#fff" opacity="1.00" d=" M 193.23 48.90 C 231.55 48.50 269.90 48.72 308.23 48.79 C 308.26 58.38 308.72 68.01 308.00 77.58 C 279.50 77.54 250.99 77.48 222.49 77.61 C 222.30 87.89 222.25 98.18 222.50 108.47 C 247.50 108.67 272.50 108.55 297.50 108.55 C 297.47 117.20 297.53 125.85 297.49 134.50 C 272.50 134.55 247.50 134.39 222.50 134.58 C 222.31 145.47 222.16 156.37 222.60 167.25 C 251.09 167.46 279.58 167.24 308.07 167.34 C 308.53 176.79 308.44 186.29 308.14 195.75 C 269.84 195.72 231.54 195.75 193.24 195.72 C 193.16 146.78 193.19 97.84 193.23 48.90 Z" />
<path fill="#fff" opacity="1.00" d=" M 660.67 48.79 C 670.02 48.72 679.38 48.52 688.73 48.89 C 688.73 97.83 688.76 146.77 688.71 195.71 C 679.39 195.81 670.07 195.68 660.76 195.79 C 660.39 146.80 660.58 97.79 660.67 48.79 Z" />
</g>
</svg>
