<?xml version="1.0" encoding="UTF-8" standalone="no"?>
<svg
   xmlns:dc="http://purl.org/dc/elements/1.1/"
   xmlns:cc="http://creativecommons.org/ns#"
   xmlns:rdf="http://www.w3.org/1999/02/22-rdf-syntax-ns#"
   xmlns:svg="http://www.w3.org/2000/svg"
   xmlns="http://www.w3.org/2000/svg"
   viewBox="0 0 302.21332 70.466667"
   height="70.466667"
   width="302.21332"
   xml:space="preserve"
   id="svg2"
   version="1.1"><metadata
     id="metadata8"><rdf:RDF><cc:Work
         rdf:about=""><dc:format>image/svg+xml</dc:format><dc:type
           rdf:resource="http://purl.org/dc/dcmitype/StillImage" /></cc:Work></rdf:RDF></metadata><defs
     id="defs6" /><g
     transform="matrix(1.3333333,0,0,-1.3333333,0,70.466667)"
     id="g10"><g
       transform="scale(0.1)"
       id="g12"><path
         id="path14"
         style="fill:#040606;fill-opacity:1;fill-rule:nonzero;stroke:none"
         d="M 0,55.4414 V 159.133 H 2.88281 C 67.6875,82.8047 133.93,35.9961 206.66,35.9961 c 64.082,0 112.328,32.4023 112.328,87.8519 0,37.441 -25.203,64.804 -87.129,90.722 L 113.051,264.98 C 57.6016,288.742 7.91797,327.629 7.91797,393.867 c 0,67.688 69.85153,134.653 182.18003,134.653 64.804,0 116.648,-19.438 172.093,-48.957 V 380.91 h -2.878 c -61.926,70.567 -110.891,111.61 -182.899,111.61 -63.363,0 -99.3671,-40.321 -99.3671,-78.485 0,-33.847 15.8398,-60.488 70.5661,-82.812 l 120.973,-49.68 c 83.523,-34.57 122.41,-72.734 122.41,-134.656 C 390.996,58.3203 305.309,0 203.059,0 129.609,0 66.9688,15.1172 0,55.4414" /><path
         id="path16"
         style="fill:#040606;fill-opacity:1;fill-rule:nonzero;stroke:none"
         d="m 468.004,513.398 v 2.883 h 109.445 v -2.883 c -12.238,-29.519 -18,-61.199 -18,-97.207 V 112.324 c 0,-36.0037 5.762,-67.6834 18,-97.2068 V 12.2383 H 468.004 v 2.8789 C 480.242,44.6406 486,76.3203 486,112.324 v 303.867 c 0,36.008 -5.758,67.688 -17.996,97.207" /><path
         id="path18"
         style="fill:#040606;fill-opacity:1;fill-rule:nonzero;stroke:none"
         d="m 651.598,264.258 c 0,146.172 118.808,264.262 264.98,264.262 72.731,0 132.492,-25.2 179.292,-53.286 V 372.266 h -2.88 c -56.88,64.093 -105.123,120.254 -189.373,120.254 -97.207,0 -167.773,-94.325 -167.773,-215.301 0,-121.692 72.726,-241.2229 200.898,-241.2229 38.883,0 66.248,12.2461 97.208,36.0078 v 80.6441 c 0,36.004 -5.76,67.684 -18,97.207 v 2.879 h 109.45 v -2.879 c -12.25,-29.523 -18,-61.203 -18,-97.207 V 47.5195 C 1054.83,20.8789 987.145,0 920.18,0 766.086,0 651.598,118.086 651.598,264.258" /><path
         id="path20"
         style="fill:#040606;fill-opacity:1;fill-rule:nonzero;stroke:none"
         d="M 1416.25,72.7266 1267.2,442.832 V 112.324 c 0,-36.0037 5.76,-67.6834 18,-97.2068 v -2.8789 h -80.64 v 2.8789 c 12.23,29.5234 17.99,61.2031 17.99,97.2068 v 303.867 c 0,36.008 -5.76,67.688 -17.99,97.207 v 2.883 h 111.61 c 1.43,-9.355 5.04,-19.445 8.63,-28.801 l 152.66,-383.074 147.61,383.074 c 3.61,9.356 7.2,19.446 8.65,28.801 h 108.73 v -2.883 c -12.25,-29.519 -18.01,-61.199 -18.01,-97.207 V 112.324 c 0,-36.0037 5.76,-67.6834 18.01,-97.2068 v -2.8789 h -108.02 v 2.8789 c 12.24,29.5234 18.01,61.2031 18.01,97.2068 V 444.277 L 1510.58,72.7266 c -7.92,-20.168 -15.13,-41.0469 -19.44,-60.4883 h -54.01 c -5.04,19.4414 -12.96,40.3203 -20.88,60.4883" /><path
         id="path22"
         style="fill:#040606;fill-opacity:1;fill-rule:nonzero;stroke:none"
         d="m 2104.58,203.059 -92.17,239.773 -91.45,-239.773 z m -258.51,-79.211 126.73,329.785 c 11.52,29.531 2.17,47.531 -6.48,59.765 v 2.883 h 97.93 c 1.44,-10.078 7.92,-30.246 16.57,-51.847 l 130.33,-340.586 c 18.72,-48.2425 37.44,-84.9691 55.44,-108.7308 v -2.8789 h -120.97 v 2.8789 c 10.08,36.7187 9.36,57.6094 -10.09,108.0078 l -16.55,43.926 H 1906.56 L 1890,123.125 C 1870.55,72.7266 1869.83,51.8359 1879.92,15.1172 v -2.8789 h -89.29 v 2.8789 c 18,23.7617 36.72,60.4883 55.44,108.7308" /></g></g></svg>