<?xml version="1.0" encoding="utf-8"?>
<svg width="226px" height="34px" viewBox="0 0 226 34" version="1.1" xmlns="http://www.w3.org/2000/svg">
  <g fill="#fff">
    <polygon points="0 0 42.457 0 42.457 7.485 25.601 7.485 25.601 34 16.92 34 16.92 7.615 0 7.615" />
    <polygon
      points="85.566 0 93.783 0 93.783 20.085 94.705 20.085 112.523 7.876 124.813 7.876 104.894 20.875 125.41 34 111.865 34 94.511 21.532 93.783 21.664 93.783 34 85.566 34" />
    <polygon points="129.983 0 137.821 0 137.821 5.885 129.983 5.885" />
    <polygon points="129.983 7.846 137.821 7.846 137.821 33.346 129.983 33.346" />
    <path
      d="M 142.393 7.846 L 173.92 7.846 C 173.92 7.846 179.761 8.169 180.931 14.431 L 180.931 33.346 L 173.015 33.346 L 173.015 15.725 C 173.015 15.725 172.954 14.172 171.719 14.172 C 170.29 14.172 150.307 14.172 150.307 14.172 L 150.307 33.346 L 142.393 33.346 L 142.393 7.846 Z" />
    <path
      d="M 73.357 7.847 L 48.144 7.847 C 42.398 7.847 41.15 14.631 41.15 14.631 C 41.15 14.631 41.15 20.958 41.15 26.23 C 41.15 33.343 48.207 34 48.207 34 L 73.163 34 C 80.016 33.803 80.994 27.286 80.994 27.286 L 80.994 15.688 C 80.605 7.65 73.357 7.847 73.357 7.847 L 73.357 7.847 Z M 71.726 27.549 C 70.024 27.549 50.955 27.549 50.955 27.549 C 50.955 27.549 49.256 27.746 49.256 25.964 C 49.256 24.515 49.256 15.821 49.256 15.821 C 49.256 15.821 49.385 14.367 51.087 14.236 L 71.332 14.236 C 71.332 14.236 73.163 13.909 73.163 16.216 C 73.163 18.322 73.163 25.569 73.163 25.569 C 73.163 25.569 73.417 27.549 71.726 27.549 Z" />
    <path
      d="M 218.921 7.846 L 185.856 7.846 L 185.856 13.706 C 185.856 13.706 215.374 13.706 216.557 13.706 C 217.738 13.706 217.87 15.084 217.87 15.084 L 217.87 18.376 C 217.87 18.376 197.007 18.376 191.761 18.376 C 186.442 18.376 185.528 23.641 185.528 23.641 C 185.528 23.641 185.399 27.393 185.724 29.104 C 186.868 35.066 193.986 33.91 193.986 33.91 L 226 33.91 C 226 33.91 226 21.932 226 15.217 C 226 8.504 218.921 7.846 218.921 7.846 L 218.921 7.846 Z M 217.738 27.986 L 193.336 27.986 L 193.336 23.903 L 217.738 23.903 L 217.738 27.986 Z" />
  </g>
</svg>