<?xml version="1.0" encoding="UTF-8" ?>
<!DOCTYPE svg PUBLIC "-//W3C//DTD SVG 1.1//EN" "http://www.w3.org/Graphics/SVG/1.1/DTD/svg11.dtd">
<svg width="983pt" height="440pt" viewBox="0 0 983 440" version="1.1" xmlns="http://www.w3.org/2000/svg">
    <g id="#000ff">
        <path fill="#000" opacity="1.00"
            d=" M 97.49 0.00 L 176.42 0.00 C 177.72 7.37 176.67 15.00 176.98 22.47 C 220.58 22.54 264.17 22.47 307.76 22.51 C 307.74 31.26 307.76 40.00 307.75 48.75 C 264.17 48.76 220.58 48.75 177.00 48.75 C 177.00 64.84 176.99 80.92 177.00 97.00 C 176.98 101.48 177.37 106.14 175.66 110.39 C 172.74 118.49 164.69 124.58 156.01 124.75 C 136.34 124.76 116.68 124.74 97.01 124.76 C 96.99 99.42 97.01 74.09 97.00 48.75 C 64.84 48.76 32.68 48.73 0.52 48.77 C 0.47 40.01 0.51 31.26 0.50 22.50 C 32.66 22.49 64.83 22.50 97.00 22.50 C 97.28 15.01 96.40 7.42 97.49 0.00 Z" />
        <path fill="#000" opacity="1.00"
            d=" M 682.46 0.00 L 983.00 0.00 L 983.00 25.25 C 981.66 25.63 980.31 25.81 978.94 25.78 C 904.21 25.72 829.48 25.77 754.75 25.75 C 754.75 93.25 754.75 160.75 754.75 228.25 C 804.09 228.25 853.42 228.25 902.75 228.24 C 902.74 191.08 902.75 153.92 902.75 116.76 C 883.83 116.75 864.92 116.76 846.00 116.75 C 845.99 148.42 846.01 180.09 846.00 211.76 C 822.58 211.75 799.17 211.75 775.75 211.75 C 775.74 157.34 775.76 102.93 775.74 48.52 C 799.15 48.46 822.56 48.53 845.98 48.48 C 846.03 62.82 845.98 77.16 846.00 91.50 C 884.99 91.80 923.97 90.73 962.95 91.60 C 973.63 92.56 982.39 102.35 982.47 113.02 C 982.56 150.34 982.46 187.66 982.51 224.98 C 982.89 232.31 982.80 239.66 982.48 246.99 C 982.58 249.40 981.89 252.00 983.00 254.27 L 983.00 254.66 C 952.02 254.29 921.02 254.61 890.04 254.50 C 839.02 254.59 787.99 254.27 736.97 254.75 C 718.56 254.56 700.13 255.14 681.74 254.44 C 681.76 172.63 681.75 90.82 681.74 9.01 C 681.86 6.01 681.26 2.85 682.46 0.00 Z" />
        <path fill="#000" opacity="1.00"
            d=" M 354.00 0.50 C 445.17 0.50 536.33 0.50 627.50 0.50 C 627.50 9.17 627.50 17.83 627.50 26.50 C 595.36 26.47 563.22 26.57 531.08 26.45 C 530.89 102.38 531.05 178.32 531.00 254.25 C 466.41 254.25 401.83 254.26 337.24 254.25 C 337.25 245.58 337.24 236.91 337.25 228.25 C 375.00 228.24 412.75 228.25 450.50 228.24 C 450.50 161.00 450.50 93.75 450.50 26.50 C 418.35 26.52 386.20 26.46 354.05 26.54 C 353.93 17.86 354.03 9.18 354.00 0.50 Z" />
        <path fill="#000" opacity="1.00"
            d=" M 902.02 48.49 C 929.01 48.55 956.01 48.41 983.00 48.56 L 983.00 67.78 C 956.01 68.29 929.00 67.86 902.00 68.00 C 902.00 61.50 901.98 54.99 902.02 48.49 Z" />
        <path fill="#000" opacity="1.00"
            d=" M 22.74 152.02 C 23.01 140.40 33.38 130.31 44.94 130.03 C 65.71 129.96 86.48 130.02 107.25 130.00 C 107.25 162.75 107.26 195.49 107.25 228.24 C 173.02 228.32 238.80 228.11 304.57 228.35 C 304.42 236.98 304.54 245.61 304.50 254.25 C 246.01 254.25 187.53 254.25 129.04 254.25 C 93.61 254.40 58.18 254.64 22.75 254.25 C 22.74 220.17 22.76 186.10 22.74 152.02 Z" />
        <path fill="#000" opacity="1.00"
            d=" M 574.01 228.24 C 597.26 228.26 620.50 228.24 643.75 228.25 C 643.76 236.91 643.73 245.57 643.77 254.23 C 620.51 254.28 597.26 254.24 574.00 254.25 C 574.00 245.58 573.98 236.91 574.01 228.24 Z" />
        <path fill="#000" opacity="1.00"
            d=" M 183.57 273.45 C 186.86 264.79 200.84 263.12 205.61 271.24 C 209.29 278.79 211.58 286.94 214.33 294.86 C 228.25 337.95 243.02 380.76 257.19 423.77 C 259.20 430.30 255.51 438.57 248.45 440.00 L 244.31 440.00 C 239.84 439.15 235.69 436.13 234.23 431.71 C 230.27 420.37 226.97 408.81 222.80 397.55 C 204.41 397.43 186.02 397.55 167.63 397.49 C 164.05 409.15 160.11 420.70 155.88 432.13 C 154.48 436.17 150.90 439.22 146.70 440.00 L 143.28 440.00 C 135.92 439.37 130.62 431.21 133.21 424.25 C 138.62 406.07 145.26 388.29 151.12 370.25 C 156.82 352.73 163.26 335.46 168.68 317.84 C 173.27 302.92 178.85 288.32 183.57 273.45 M 192.20 324.19 C 186.57 340.55 181.37 357.05 175.88 373.45 C 188.84 373.57 201.79 373.43 214.75 373.53 C 208.67 354.01 201.76 334.75 195.39 315.33 C 193.75 318.04 193.26 321.24 192.20 324.19 Z" />
        <path fill="#000" opacity="1.00"
            d=" M 666.30 314.39 C 666.70 314.30 667.49 314.11 667.88 314.02 C 686.24 313.96 704.60 314.04 722.96 313.98 C 730.78 313.68 737.82 318.99 741.47 325.62 C 744.67 331.14 745.89 337.56 745.94 343.89 C 746.58 367.25 746.10 390.62 746.25 413.99 C 745.75 420.00 745.74 426.03 745.69 432.06 C 745.54 435.02 744.74 439.50 740.93 439.49 C 716.29 439.52 691.66 439.49 667.02 439.50 C 663.74 439.58 660.85 437.64 658.47 435.59 C 654.63 432.13 651.53 427.28 651.74 421.94 C 651.75 409.64 651.76 397.33 651.73 385.03 C 651.55 376.49 656.38 368.18 663.50 363.61 C 667.82 360.83 673.10 361.11 678.01 360.99 C 691.65 361.09 705.31 360.81 718.94 361.19 C 721.04 361.05 723.83 361.26 724.74 358.83 C 726.20 354.01 726.48 348.71 725.11 343.84 C 724.65 341.92 723.11 340.14 721.00 340.32 C 703.35 340.14 685.70 340.32 668.06 340.23 C 665.50 340.51 663.73 338.23 663.40 335.95 C 662.45 330.64 662.41 325.11 663.41 319.81 C 663.91 317.85 664.27 315.38 666.30 314.39 M 676.26 387.12 C 673.84 389.39 674.02 393.09 673.57 396.14 C 673.56 401.25 673.00 406.50 674.37 411.50 C 674.90 413.57 676.55 415.83 678.96 415.49 C 692.31 415.53 705.66 415.46 719.01 415.52 C 720.48 415.37 722.44 415.95 723.44 414.46 C 725.69 411.50 725.70 407.56 725.82 404.01 C 726.10 399.63 726.08 395.16 725.08 390.87 C 724.57 388.91 723.37 386.45 721.00 386.54 C 706.67 386.47 692.35 386.47 678.03 386.54 C 677.58 386.69 676.70 386.98 676.26 387.12 Z" />
        <path fill="#000" opacity="1.00"
            d=" M 771.00 320.96 C 770.62 317.62 773.51 314.27 776.93 314.49 C 797.92 314.52 818.91 314.47 839.90 314.51 C 852.96 315.57 864.48 326.98 865.48 340.07 C 865.53 368.72 865.47 397.37 865.51 426.02 C 865.44 428.30 865.82 430.72 864.78 432.86 C 861.77 439.78 851.66 441.89 845.95 437.07 C 843.92 435.27 842.08 432.82 842.01 430.01 C 841.95 401.96 842.07 373.90 841.96 345.84 C 841.82 342.86 840.87 338.30 837.02 338.51 C 822.93 338.49 808.84 338.51 794.76 338.50 C 794.75 368.34 794.75 398.18 794.76 428.01 C 795.24 434.23 789.22 440.33 782.96 439.54 C 776.52 440.37 770.67 434.25 771.00 427.95 C 771.00 392.29 771.00 356.63 771.00 320.96 Z" />
        <path fill="#000" opacity="1.00"
            d=" M 286.00 320.87 C 289.54 313.82 300.63 312.05 305.83 318.22 C 309.09 321.52 309.16 326.40 309.02 330.74 C 322.96 324.43 336.53 315.94 352.13 314.60 C 358.02 314.22 364.83 314.30 369.35 318.69 C 372.68 321.53 373.59 326.72 371.28 330.48 C 368.41 335.48 362.56 337.75 357.12 338.57 C 346.64 340.30 336.45 335.79 325.99 336.25 C 321.22 336.44 316.50 337.91 312.50 340.52 C 310.39 341.96 308.70 344.35 308.99 347.01 C 309.01 373.68 308.99 400.34 309.01 427.01 C 309.10 430.69 307.83 434.56 305.03 437.06 C 302.33 439.47 298.49 439.62 295.06 439.52 C 289.23 439.48 284.78 433.55 284.99 428.00 C 285.00 394.64 285.01 361.28 284.98 327.92 C 285.03 325.55 284.69 322.98 286.00 320.87 Z" />
        <path fill="#000" opacity="1.00"
            d=" M 401.53 319.42 C 401.57 317.02 404.08 315.93 406.01 315.26 C 410.06 314.15 414.51 314.09 418.53 315.36 C 420.57 315.98 422.89 317.58 422.74 319.98 C 422.79 326.48 422.73 332.99 422.75 339.50 C 432.37 339.54 441.99 339.42 451.61 339.54 C 456.43 340.18 457.42 345.99 457.69 349.99 C 457.60 354.12 457.20 359.86 452.77 361.64 C 442.77 361.92 432.76 361.66 422.76 361.76 C 422.76 377.15 422.74 392.55 422.76 407.95 C 422.73 410.72 423.23 414.59 426.56 415.21 C 434.97 416.72 443.50 414.78 451.95 415.38 C 455.76 415.77 457.05 419.88 457.29 423.12 C 457.58 427.68 458.09 432.58 456.09 436.86 C 455.51 438.11 454.55 439.65 452.94 439.46 C 440.67 439.49 428.39 439.61 416.13 439.40 C 407.25 437.71 402.13 428.26 401.52 419.87 C 401.46 400.50 401.52 381.13 401.50 361.75 C 396.33 361.68 391.16 361.88 386.01 361.68 C 382.39 360.19 381.67 355.63 381.27 352.17 C 381.06 347.84 381.47 341.89 386.04 339.87 C 391.12 339.04 396.35 339.71 401.49 339.50 C 401.54 332.81 401.43 326.11 401.53 319.42 Z" />
        <path fill="#000" opacity="1.00"
            d=" M 490.40 315.41 C 496.86 312.41 506.04 316.56 506.92 323.93 C 508.04 330.86 502.33 338.29 495.00 337.54 C 487.20 337.92 481.91 328.93 484.38 321.99 C 485.46 319.14 487.63 316.71 490.40 315.41 Z" />
        <path fill="#000" opacity="1.00"
            d=" M 533.75 333.06 C 533.72 323.40 542.20 314.30 552.02 314.49 C 573.35 314.51 594.68 314.50 616.01 314.49 C 619.81 314.06 622.34 317.62 623.43 320.80 C 625.24 326.14 625.10 332.79 621.17 337.19 C 619.43 339.27 616.52 339.48 614.00 339.51 C 600.99 339.49 587.98 339.50 574.97 339.50 C 569.80 339.52 564.36 338.46 559.41 340.40 C 556.40 341.57 556.77 345.30 556.73 347.93 C 556.97 352.11 556.05 356.52 557.57 360.53 C 559.00 363.70 562.96 363.80 565.94 363.96 C 578.28 364.25 590.63 363.24 602.96 363.98 C 608.98 364.22 614.89 366.58 619.58 370.35 C 623.84 373.88 624.91 379.71 624.99 384.96 C 625.03 393.30 624.98 401.64 625.00 409.98 C 624.86 415.71 624.65 421.73 621.93 426.93 C 618.46 433.55 612.43 439.60 604.54 440.00 L 584.63 440.00 C 569.77 439.49 554.90 439.55 540.03 439.44 C 536.52 439.46 535.19 435.65 534.62 432.81 C 533.92 427.95 533.68 422.57 536.18 418.15 C 537.24 415.99 539.81 415.42 542.02 415.49 C 557.37 415.54 572.72 415.40 588.07 415.63 C 592.07 415.28 596.85 416.01 600.07 413.07 C 602.55 409.57 601.53 405.00 601.77 400.99 C 601.69 397.31 602.29 392.57 598.74 390.23 C 594.35 388.58 589.57 390.05 585.01 389.72 C 575.69 388.98 566.33 389.31 556.99 389.26 C 553.06 389.19 548.83 389.75 545.24 387.79 C 537.67 383.99 533.65 375.22 533.73 367.01 C 533.77 355.69 533.73 344.37 533.75 333.06 Z" />
        <path fill="#000" opacity="1.00"
            d=" M 887.87 330.96 C 888.47 321.80 896.92 314.48 905.96 314.49 C 927.31 314.52 948.66 314.46 970.01 314.52 C 973.64 314.43 976.35 317.64 977.43 320.81 C 979.20 326.14 978.66 332.46 975.23 337.03 C 973.62 339.35 970.51 339.38 967.98 339.50 C 951.98 339.50 935.98 339.52 919.98 339.48 C 916.42 339.28 910.99 339.54 910.63 344.17 C 910.22 348.93 909.88 353.80 910.68 358.55 C 911.05 360.86 912.69 363.17 915.19 363.38 C 922.77 364.13 930.41 363.98 938.03 364.00 C 945.07 364.16 952.14 363.22 959.16 364.20 C 965.60 364.82 971.58 368.24 975.83 373.05 C 979.45 377.15 978.53 382.96 978.96 388.00 C 978.94 398.27 979.33 408.59 978.42 418.84 C 976.87 428.87 969.14 438.91 958.54 440.00 L 896.24 440.00 C 891.13 440.59 888.33 435.44 888.27 431.14 C 888.29 427.42 887.80 423.55 888.95 419.95 C 889.79 416.84 893.05 415.37 896.06 415.51 C 912.99 415.45 929.92 415.56 946.85 415.47 C 950.00 415.32 954.09 414.40 955.09 410.92 C 955.87 406.72 955.44 402.40 955.43 398.16 C 955.15 395.40 955.46 391.66 952.54 390.19 C 947.78 388.76 942.79 390.10 937.93 389.70 C 929.66 388.86 921.33 389.40 913.04 389.25 C 908.17 389.09 902.86 390.01 898.43 387.48 C 891.75 383.46 887.58 375.74 887.74 367.96 C 887.84 355.63 887.57 343.28 887.87 330.96 Z" />
        <path fill="#000" opacity="1.00"
            d=" M 483.44 347.09 C 491.47 346.94 499.52 346.95 507.56 347.08 C 507.42 374.08 507.56 401.08 507.49 428.08 C 507.46 432.22 504.97 436.04 501.54 438.23 C 498.76 440.06 495.30 439.51 492.16 439.42 C 487.74 438.43 483.99 434.43 483.51 429.90 C 483.44 402.30 483.59 374.69 483.44 347.09 Z" />
    </g>
    <g id="#d61518ff">
        <path fill="#000" opacity="1.00"
            d=" M 23.20 272.21 C 25.36 268.45 29.57 265.89 33.94 266.01 C 67.30 265.99 100.66 266.00 134.02 266.01 C 139.37 265.85 144.60 269.73 145.85 274.95 C 146.56 278.81 145.53 282.69 144.27 286.33 C 127.69 334.92 111.75 383.73 95.17 432.32 C 93.74 436.47 90.04 439.47 85.67 440.00 L 81.43 440.00 C 75.63 438.76 71.20 432.82 72.36 426.87 C 73.64 418.81 77.09 411.33 79.55 403.60 C 92.36 365.59 105.07 327.54 117.71 289.47 C 89.20 289.50 60.68 289.55 32.17 289.45 C 23.89 289.33 19.41 278.99 23.20 272.21 Z" />
    </g>
</svg>