<?xml version="1.0" encoding="UTF-8" ?>
<!DOCTYPE svg PUBLIC "-//W3C//DTD SVG 1.1//EN" "http://www.w3.org/Graphics/SVG/1.1/DTD/svg11.dtd">
<svg width="2846pt" height="506pt" viewBox="0 0 2846 506" version="1.1" xmlns="http://www.w3.org/2000/svg">
<g id="#ffffffff">
<path fill="#ffffff" opacity="1.00" d=" M 0.34 0.00 L 105.24 0.00 C 136.78 100.08 167.81 200.33 199.15 300.47 C 241.39 240.21 283.18 179.61 325.25 119.23 C 352.94 79.50 380.39 39.60 408.25 0.00 L 509.45 0.00 C 486.18 34.12 462.35 67.86 438.87 101.85 C 346.20 235.17 253.57 368.53 160.89 501.85 C 159.98 503.18 159.15 504.57 158.39 506.00 L 158.22 506.00 C 144.16 462.12 130.72 418.04 116.89 374.08 C 86.92 278.03 56.94 181.97 26.96 85.92 C 18.15 57.26 8.87 28.74 0.34 0.00 Z" />
<path fill="#ffffff" opacity="1.00" d=" M 589.39 0.00 L 686.44 0.00 C 678.35 43.65 669.47 87.17 661.12 130.78 C 636.62 255.84 612.41 380.96 587.80 506.00 L 490.43 506.00 C 519.72 355.86 549.03 205.72 578.31 55.57 C 582.08 37.06 585.27 18.43 589.39 0.00 Z" />
<path fill="#ffffff" opacity="1.00" d=" M 768.45 0.00 L 865.95 0.00 C 837.48 145.76 809.11 291.55 780.83 437.35 C 865.89 437.42 950.94 437.36 1036.00 437.38 C 1048.73 437.31 1061.48 437.52 1074.22 437.27 C 1070.24 460.25 1065.50 483.11 1061.01 506.00 L 669.95 506.00 C 702.80 337.34 735.57 168.66 768.45 0.00 Z" />
<path fill="#ffffff" opacity="1.00" d=" M 1086.58 0.00 L 1475.67 0.00 C 1471.87 23.39 1466.55 46.53 1462.50 69.87 C 1437.01 70.45 1411.50 69.96 1386.00 70.12 C 1364.96 70.01 1343.91 70.35 1322.88 69.95 C 1294.54 215.29 1266.48 360.69 1238.02 506.00 L 1140.64 506.00 C 1168.88 360.71 1197.16 215.42 1225.35 70.12 C 1174.51 70.11 1123.68 70.17 1072.84 70.08 C 1077.39 46.72 1081.72 23.30 1086.58 0.00 Z" />
<path fill="#ffffff" opacity="1.00" d=" M 1556.85 0.00 L 1822.12 0.00 C 1829.03 1.33 1836.15 1.37 1842.99 3.21 C 1875.61 10.55 1903.66 34.77 1916.06 65.77 C 1923.64 84.27 1925.64 104.96 1921.86 124.59 C 1915.40 157.31 1908.99 190.05 1902.49 222.77 C 1895.83 254.55 1873.27 282.38 1843.66 295.65 C 1830.61 301.60 1816.34 304.83 1802.00 305.00 C 1794.52 305.02 1787.05 304.96 1779.58 305.03 C 1814.29 372.09 1849.33 438.99 1884.14 506.00 L 1786.72 506.00 C 1739.73 416.02 1692.88 325.96 1646.02 235.91 C 1689.03 235.84 1732.03 235.90 1775.04 235.88 C 1790.52 235.80 1804.86 223.92 1808.01 208.79 C 1814.32 176.03 1820.50 143.23 1826.74 110.45 C 1829.38 95.88 1821.29 80.38 1808.06 73.88 C 1802.22 70.82 1795.53 69.88 1789.01 70.11 C 1739.58 70.04 1690.14 70.32 1640.71 69.97 C 1612.19 215.27 1584.27 360.70 1555.78 506.00 L 1458.43 506.00 C 1491.21 337.33 1523.88 168.63 1556.85 0.00 Z" />
<path fill="#ffffff" opacity="1.00" d=" M 2456.03 0.00 L 2553.09 0.00 C 2561.62 20.91 2569.41 42.14 2577.63 63.18 C 2590.56 96.73 2603.52 130.26 2616.39 163.83 C 2618.76 163.48 2619.50 160.58 2621.08 159.04 C 2661.23 106.03 2701.23 52.88 2741.55 0.00 L 2846.00 0.00 L 2846.00 0.33 C 2822.76 30.37 2800.11 60.88 2777.09 91.10 C 2735.37 146.11 2693.88 201.29 2652.02 256.17 C 2684.07 339.46 2716.22 422.71 2748.25 506.00 L 2650.86 506.00 C 2635.23 465.88 2619.88 425.64 2604.34 385.48 C 2598.82 370.89 2592.97 356.43 2587.65 341.78 C 2574.78 357.95 2562.64 374.69 2550.06 391.09 C 2521.10 429.40 2492.05 467.65 2463.14 506.00 L 2358.56 506.00 C 2422.67 420.99 2487.08 336.20 2551.25 251.23 C 2552.36 250.20 2551.68 248.88 2551.27 247.71 C 2528.34 188.28 2505.47 128.82 2482.54 69.39 C 2473.77 46.23 2464.49 23.26 2456.03 0.00 Z" />
<path fill="#ffffff" opacity="1.00" d=" M 2023.70 47.75 C 2042.81 18.10 2077.72 -0.39 2113.00 0.48 C 2164.00 0.50 2215.00 0.48 2266.00 0.49 C 2280.97 0.67 2296.18 -0.49 2310.87 3.11 C 2329.32 7.31 2346.56 16.68 2360.10 29.89 C 2384.02 52.71 2395.98 87.33 2390.90 120.04 C 2388.72 132.72 2386.10 145.32 2383.71 157.96 C 2368.08 239.13 2352.40 320.28 2336.78 401.45 C 2333.92 415.22 2332.26 429.43 2326.42 442.37 C 2313.27 473.47 2284.11 497.15 2250.94 503.52 C 2244.17 505.17 2237.17 505.04 2230.33 506.00 L 2053.74 506.00 C 2050.51 505.41 2047.22 505.38 2043.99 505.07 C 2024.51 503.30 2005.64 495.77 1990.21 483.78 C 1963.82 463.59 1948.02 430.29 1949.62 397.04 C 1949.86 387.21 1952.21 377.63 1953.99 368.00 C 1972.05 274.35 1990.11 180.70 2008.17 87.05 C 2010.63 73.08 2015.91 59.61 2023.70 47.75 M 2130.46 70.82 C 2120.11 72.81 2110.86 79.80 2106.17 89.24 C 2102.76 95.66 2102.36 103.05 2100.79 110.02 C 2082.49 205.51 2064.14 300.98 2045.84 396.46 C 2044.63 402.28 2045.06 408.38 2046.93 414.01 C 2051.28 427.59 2064.63 437.68 2078.94 437.86 C 2120.93 437.88 2162.92 437.90 2204.92 437.85 C 2220.60 437.47 2234.91 425.13 2237.62 409.68 C 2255.91 314.47 2274.15 219.25 2292.46 124.05 C 2293.89 115.19 2297.02 106.16 2294.61 97.16 C 2291.38 82.22 2277.34 70.49 2262.02 70.18 C 2223.01 70.05 2184.00 70.16 2145.00 70.12 C 2140.14 70.17 2135.23 69.83 2130.46 70.82 Z" />
</g>
</svg>
