<?xml version="1.0" encoding="UTF-8" ?>
<!DOCTYPE svg PUBLIC "-//W3C//DTD SVG 1.1//EN" "http://www.w3.org/Graphics/SVG/1.1/DTD/svg11.dtd">
<svg width="479pt" height="128pt" viewBox="0 0 479 128" version="1.1" xmlns="http://www.w3.org/2000/svg">
<g id="#d2d2d3fb">
<path fill="#d2d2d3" opacity="1.00" d=" M 0.00 0.00 L 127.92 0.00 C 127.99 42.67 127.91 85.33 127.96 128.00 L 0.00 128.00 L 0.00 0.00 M 4.25 4.32 C 4.34 44.13 4.33 83.95 4.25 123.76 C 44.10 123.76 83.95 123.75 123.79 123.76 C 123.72 83.95 123.70 44.13 123.80 4.32 C 83.95 4.32 44.10 4.32 4.25 4.32 Z" />
</g>
<g id="#0b4da2ff">
<path fill="#0b4da2" opacity="1.00" d=" M 4.25 4.32 C 44.10 4.32 83.95 4.32 123.80 4.32 C 123.70 44.13 123.72 83.95 123.79 123.76 C 83.95 123.75 44.10 123.76 4.25 123.76 C 4.33 83.95 4.34 44.13 4.25 4.32 M 49.90 18.15 C 38.75 20.57 27.32 25.89 21.10 35.90 C 32.38 35.88 43.68 35.72 54.96 35.95 C 58.36 38.26 61.02 41.51 64.01 44.32 C 67.02 41.53 69.68 38.29 73.07 35.95 C 84.28 35.70 95.51 35.92 106.74 35.86 C 102.97 30.14 97.44 25.78 91.32 22.81 C 78.55 16.67 63.71 15.36 49.90 18.15 M 18.96 40.68 C 17.70 46.32 18.47 52.44 21.75 57.28 C 27.38 65.93 37.10 70.86 46.77 73.64 C 52.54 66.45 58.53 59.43 64.04 52.03 C 69.74 59.34 75.54 66.57 81.36 73.79 C 91.22 70.90 101.34 65.96 106.80 56.84 C 109.80 52.04 110.26 46.12 108.99 40.69 C 97.35 40.60 85.71 40.69 74.07 40.65 C 70.67 43.82 67.31 47.04 64.00 50.31 C 60.76 46.99 57.48 43.71 54.00 40.64 C 42.32 40.69 30.64 40.62 18.96 40.68 M 51.73 74.66 C 55.07 75.25 58.46 75.64 61.85 75.74 C 61.70 71.27 61.78 66.80 61.82 62.33 C 58.44 66.42 55.25 70.68 51.73 74.66 M 66.21 62.33 C 66.28 66.80 66.33 71.28 66.21 75.76 C 69.57 75.60 72.92 75.29 76.26 74.84 C 72.98 70.62 69.69 66.39 66.21 62.33 M 23.35 91.31 C 21.10 93.16 20.95 96.99 23.08 98.98 C 26.37 102.11 31.88 100.82 35.00 104.10 C 36.43 108.41 29.90 110.22 27.11 107.89 C 24.57 106.57 24.49 101.88 21.11 102.48 C 21.64 105.59 22.17 108.70 22.86 111.79 C 23.37 111.28 24.40 110.25 24.91 109.74 C 28.45 111.74 33.13 112.00 36.47 109.47 C 38.90 107.73 39.89 103.69 37.56 101.48 C 33.65 97.92 27.48 98.81 23.73 94.95 C 24.73 93.46 25.92 91.81 27.92 91.76 C 31.73 91.04 34.40 94.31 36.41 97.01 C 36.85 96.80 37.75 96.37 38.19 96.16 C 37.51 93.77 36.86 91.37 36.14 88.99 C 35.57 89.30 34.42 89.93 33.84 90.24 C 30.46 88.85 26.23 88.79 23.35 91.31 M 74.41 89.40 C 74.20 89.79 73.79 90.58 73.59 90.97 C 74.30 91.13 75.74 91.44 76.46 91.60 C 76.52 96.35 75.95 101.16 76.71 105.87 C 79.05 112.88 90.87 113.15 93.06 105.90 C 93.75 101.15 93.22 96.32 93.38 91.54 C 94.11 91.39 95.57 91.10 96.30 90.96 C 94.83 87.68 90.28 89.87 87.44 89.32 C 87.40 89.77 87.32 90.67 87.27 91.12 C 88.50 91.28 89.72 91.46 90.94 91.64 C 90.77 96.13 90.72 100.62 90.88 105.11 C 88.35 108.62 82.14 109.10 79.99 104.97 C 79.51 100.55 79.93 96.09 79.76 91.65 C 80.40 91.49 81.69 91.18 82.33 91.02 C 82.36 90.60 82.42 89.78 82.44 89.37 C 79.77 89.31 77.08 89.10 74.41 89.40 M 40.58 89.76 C 41.41 90.82 42.56 91.53 43.69 92.23 C 43.70 97.72 43.67 103.22 43.71 108.72 C 42.95 109.04 41.43 109.70 40.66 110.03 C 42.91 112.33 46.55 110.93 49.40 111.18 C 48.93 109.93 48.04 109.12 46.74 108.74 C 46.52 103.19 46.59 97.63 46.69 92.07 C 47.92 91.58 48.83 90.76 49.43 89.60 C 46.48 89.43 43.52 89.42 40.58 89.76 M 51.89 89.49 L 51.86 91.06 C 52.92 91.53 54.95 91.38 54.64 93.12 C 54.70 98.25 54.82 103.40 54.57 108.52 C 53.91 108.77 52.58 109.28 51.91 109.54 C 51.90 109.94 51.88 110.75 51.86 111.15 C 54.91 111.16 57.95 111.16 60.99 111.14 C 61.00 110.69 61.01 109.78 61.02 109.32 C 60.22 109.24 58.61 109.07 57.81 108.99 C 57.67 106.44 57.64 103.89 57.62 101.34 C 58.57 101.34 59.52 101.35 60.48 101.35 C 63.31 104.61 66.07 107.93 68.94 111.16 C 70.40 111.15 71.87 111.13 73.34 111.13 C 73.42 110.74 73.60 109.97 73.68 109.58 C 69.63 108.53 67.80 104.60 65.25 101.71 C 67.48 100.73 70.29 99.74 70.80 97.01 C 71.83 93.70 69.44 90.05 66.02 89.63 C 61.32 89.25 56.60 89.58 51.89 89.49 M 98.39 91.10 C 99.02 91.29 100.27 91.67 100.90 91.86 C 100.83 97.50 100.88 103.13 100.87 108.77 C 100.13 109.07 98.67 109.69 97.94 109.99 C 100.08 112.36 103.72 110.91 106.52 111.23 C 106.18 109.89 105.31 109.04 103.92 108.68 C 103.77 103.17 103.75 97.65 103.93 92.13 C 104.98 91.43 105.98 90.65 106.93 89.81 C 104.20 89.46 101.44 89.45 98.69 89.45 C 98.62 89.86 98.47 90.69 98.39 91.10 Z" />
<path fill="#0b4da2" opacity="1.00" d=" M 57.65 92.17 C 60.07 92.18 62.51 92.02 64.91 92.34 C 67.68 92.97 68.19 97.39 65.57 98.58 C 62.95 99.07 60.27 98.79 57.63 98.82 C 57.64 96.60 57.65 94.38 57.65 92.17 Z" />
</g>
<g id="#ffffffff">
<path fill="#ffffff" opacity="1.00" d=" M 49.90 18.15 C 63.71 15.36 78.55 16.67 91.32 22.81 C 97.44 25.78 102.97 30.14 106.74 35.86 C 95.51 35.92 84.28 35.70 73.07 35.95 C 69.68 38.29 67.02 41.53 64.01 44.32 C 61.02 41.51 58.36 38.26 54.96 35.95 C 43.68 35.72 32.38 35.88 21.10 35.90 C 27.32 25.89 38.75 20.57 49.90 18.15 Z" />
<path fill="#ffffff" opacity="1.00" d=" M 162.52 27.38 C 174.39 19.51 190.81 18.78 203.22 25.90 C 204.07 24.36 204.44 22.12 206.35 21.51 C 208.20 20.87 210.15 21.48 211.99 21.85 C 214.30 30.53 216.58 39.21 218.85 47.90 C 216.44 49.17 214.04 50.45 211.67 51.79 C 207.19 44.46 201.71 37.26 193.85 33.35 C 186.82 29.72 178.16 30.06 171.02 33.17 C 166.60 34.99 163.42 40.18 165.16 44.89 C 166.82 48.52 170.72 50.32 174.22 51.74 C 185.78 56.12 198.33 57.72 209.39 63.44 C 214.55 66.10 219.45 70.23 221.05 76.03 C 223.19 84.65 219.82 94.37 212.70 99.71 C 203.79 106.59 191.81 108.23 180.92 106.46 C 175.44 105.73 170.51 103.07 165.94 100.10 C 164.87 102.01 164.58 104.14 164.81 106.31 C 162.56 106.98 159.19 107.89 157.58 105.67 C 155.43 95.07 154.08 84.31 152.38 73.62 C 154.69 72.96 157.03 72.39 159.34 71.71 C 163.56 77.57 165.75 84.82 171.07 89.94 C 178.63 98.30 192.32 100.18 201.66 93.72 C 206.04 90.96 208.60 85.25 206.81 80.23 C 205.30 76.11 201.08 73.97 197.20 72.57 C 185.55 68.47 172.34 68.29 161.94 61.05 C 150.77 53.47 151.31 34.69 162.52 27.38 Z" />
<path fill="#ffffff" opacity="1.00" d=" M 228.43 21.19 C 238.25 20.98 248.09 21.09 257.91 21.13 C 257.94 23.67 257.94 26.21 257.95 28.75 C 254.62 28.47 249.50 28.43 249.18 32.88 C 248.71 52.59 249.14 72.31 248.95 92.03 C 249.01 94.01 249.00 96.18 250.27 97.83 C 252.28 99.89 255.36 99.16 257.94 99.26 C 257.94 101.80 257.94 104.34 257.93 106.88 C 248.09 106.94 238.26 107.04 228.43 106.83 C 228.43 104.32 228.44 101.81 228.43 99.30 C 230.79 99.17 233.36 99.71 235.50 98.43 C 237.17 97.15 237.45 94.93 237.43 92.97 C 237.43 73.67 237.43 54.36 237.43 35.06 C 237.45 33.10 237.18 30.85 235.48 29.59 C 233.35 28.32 230.78 28.85 228.43 28.73 C 228.43 26.22 228.43 23.71 228.43 21.19 Z" />
<path fill="#ffffff" opacity="1.00" d=" M 269.06 21.16 C 283.69 21.00 298.33 21.13 312.96 21.09 C 317.96 21.14 323.12 20.69 327.94 22.37 C 335.57 24.69 342.03 31.12 343.57 39.06 C 344.84 46.84 343.33 55.76 337.22 61.23 C 332.86 65.45 326.86 66.99 321.20 68.56 C 329.08 76.01 333.24 86.52 341.38 93.71 C 344.75 96.78 349.29 98.16 353.80 98.05 C 353.87 100.77 353.85 103.49 353.86 106.21 C 347.72 106.32 341.58 106.29 335.44 106.24 C 324.76 93.27 313.55 80.74 302.78 67.84 C 299.10 67.83 295.42 67.80 291.75 67.86 C 291.68 76.26 291.67 84.66 291.73 93.06 C 291.64 95.39 293.01 97.91 295.39 98.48 C 298.36 99.20 301.44 98.69 304.46 98.60 C 304.52 101.20 304.53 103.80 304.44 106.40 C 292.62 106.37 280.80 106.53 268.99 106.31 C 269.06 103.77 269.06 101.23 269.00 98.69 C 271.85 98.52 275.04 99.31 277.63 97.78 C 279.60 96.63 279.80 94.12 279.78 92.08 C 279.76 73.04 279.78 54.00 279.78 34.96 C 279.82 33.00 279.40 30.66 277.55 29.60 C 274.93 28.19 271.89 28.81 269.06 28.74 C 269.05 26.21 269.04 23.68 269.06 21.16 M 291.70 31.58 C 291.73 40.42 291.63 49.26 291.76 58.10 C 301.57 57.74 311.55 59.06 321.24 57.15 C 328.65 55.50 330.62 46.45 328.45 40.11 C 326.98 34.62 321.21 31.65 315.86 31.54 C 307.81 31.44 299.75 31.46 291.70 31.58 Z" />
<path fill="#ffffff" opacity="1.00" d=" M 353.86 21.14 C 364.64 20.87 375.44 20.95 386.23 21.11 C 386.28 23.67 386.27 26.23 386.23 28.79 C 383.48 28.82 380.43 28.17 377.99 29.80 C 376.51 30.67 376.51 32.54 376.53 34.04 C 376.58 48.69 376.51 63.34 376.56 77.98 C 376.56 82.78 379.52 87.14 383.48 89.64 C 390.94 94.42 400.76 95.43 408.98 92.06 C 414.95 89.65 419.57 83.60 419.32 77.01 C 419.33 62.02 419.36 47.02 419.33 32.03 C 419.73 29.94 417.60 29.17 415.97 28.90 C 412.92 28.54 409.86 28.96 406.81 28.93 C 406.74 26.32 406.74 23.71 406.80 21.09 C 417.62 20.97 428.45 20.98 439.28 21.09 C 439.34 23.65 439.33 26.20 439.29 28.76 C 436.29 28.97 432.06 28.16 430.25 31.24 C 429.90 46.82 430.32 62.43 429.91 78.02 C 429.78 86.49 425.91 94.97 419.02 100.03 C 405.37 110.12 384.92 109.05 372.28 97.78 C 366.32 92.61 363.09 84.79 362.92 76.97 C 362.78 61.96 362.99 46.95 363.02 31.95 C 362.30 27.84 356.89 28.99 353.86 28.79 C 353.82 26.24 353.81 23.69 353.86 21.14 Z" />
<path fill="#ffffff" opacity="1.00" d=" M 449.44 21.15 C 459.29 21.04 469.15 21.04 479.00 21.15 L 479.00 28.66 C 476.41 28.90 473.26 28.17 471.24 30.23 C 469.97 31.85 470.12 34.03 470.06 35.97 C 470.10 55.00 470.06 74.04 470.08 93.08 C 470.09 95.10 470.30 97.71 472.41 98.67 C 474.46 99.61 476.81 99.18 479.00 99.35 L 479.00 106.79 C 469.15 107.10 459.29 106.92 449.44 106.87 C 449.41 104.36 449.42 101.84 449.42 99.33 C 451.76 99.17 454.33 99.67 456.47 98.43 C 458.51 96.98 458.37 94.23 458.44 92.01 C 458.41 73.34 458.41 54.67 458.44 36.00 C 458.37 33.79 458.51 31.05 456.48 29.60 C 454.34 28.35 451.76 28.85 449.41 28.69 C 449.42 26.18 449.42 23.67 449.44 21.15 Z" />
<path fill="#ffffff" opacity="1.00" d=" M 18.96 40.68 C 30.64 40.62 42.32 40.69 54.00 40.64 C 57.48 43.71 60.76 46.99 64.00 50.31 C 67.31 47.04 70.67 43.82 74.07 40.65 C 85.71 40.69 97.35 40.60 108.99 40.69 C 110.26 46.12 109.80 52.04 106.80 56.84 C 101.34 65.96 91.22 70.90 81.36 73.79 C 75.54 66.57 69.74 59.34 64.04 52.03 C 58.53 59.43 52.54 66.45 46.77 73.64 C 37.10 70.86 27.38 65.93 21.75 57.28 C 18.47 52.44 17.70 46.32 18.96 40.68 Z" />
<path fill="#ffffff" opacity="1.00" d=" M 51.73 74.66 C 55.25 70.68 58.44 66.42 61.82 62.33 C 61.78 66.80 61.70 71.27 61.85 75.74 C 58.46 75.64 55.07 75.25 51.73 74.66 Z" />
<path fill="#ffffff" opacity="1.00" d=" M 66.21 62.33 C 69.69 66.39 72.98 70.62 76.26 74.84 C 72.92 75.29 69.57 75.60 66.21 75.76 C 66.33 71.28 66.28 66.80 66.21 62.33 Z" />
<path fill="#ffffff" opacity="1.00" d=" M 23.35 91.31 C 26.23 88.79 30.46 88.85 33.84 90.24 C 34.42 89.93 35.57 89.30 36.14 88.99 C 36.86 91.37 37.51 93.77 38.19 96.16 C 37.75 96.37 36.85 96.80 36.41 97.01 C 34.40 94.31 31.73 91.04 27.92 91.76 C 25.92 91.81 24.73 93.46 23.73 94.95 C 27.48 98.81 33.65 97.92 37.56 101.48 C 39.89 103.69 38.90 107.73 36.47 109.47 C 33.13 112.00 28.45 111.74 24.91 109.74 C 24.40 110.25 23.37 111.28 22.86 111.79 C 22.17 108.70 21.64 105.59 21.11 102.48 C 24.49 101.88 24.57 106.57 27.11 107.89 C 29.90 110.22 36.43 108.41 35.00 104.10 C 31.88 100.82 26.37 102.11 23.08 98.98 C 20.95 96.99 21.10 93.16 23.35 91.31 Z" />
<path fill="#ffffff" opacity="1.00" d=" M 74.41 89.40 C 77.08 89.10 79.77 89.31 82.44 89.37 C 82.42 89.78 82.36 90.60 82.33 91.02 C 81.69 91.18 80.40 91.49 79.76 91.65 C 79.93 96.09 79.51 100.55 79.99 104.97 C 82.14 109.10 88.35 108.62 90.88 105.11 C 90.72 100.62 90.77 96.13 90.94 91.64 C 89.72 91.46 88.50 91.28 87.27 91.12 C 87.32 90.67 87.40 89.77 87.44 89.32 C 90.28 89.87 94.83 87.68 96.30 90.96 C 95.57 91.10 94.11 91.39 93.38 91.54 C 93.22 96.32 93.75 101.15 93.06 105.90 C 90.87 113.15 79.05 112.88 76.71 105.87 C 75.95 101.16 76.52 96.35 76.46 91.60 C 75.74 91.44 74.30 91.13 73.59 90.97 C 73.79 90.58 74.20 89.79 74.41 89.40 Z" />
<path fill="#ffffff" opacity="1.00" d=" M 40.58 89.76 C 43.52 89.42 46.48 89.43 49.43 89.60 C 48.83 90.76 47.92 91.58 46.69 92.07 C 46.59 97.63 46.52 103.19 46.74 108.74 C 48.04 109.12 48.93 109.93 49.40 111.18 C 46.55 110.93 42.91 112.33 40.66 110.03 C 41.43 109.70 42.95 109.04 43.71 108.72 C 43.67 103.22 43.70 97.72 43.69 92.23 C 42.56 91.53 41.41 90.82 40.58 89.76 Z" />
<path fill="#ffffff" opacity="1.00" d=" M 51.89 89.49 C 56.60 89.58 61.32 89.25 66.02 89.63 C 69.44 90.05 71.83 93.70 70.80 97.01 C 70.29 99.74 67.48 100.73 65.25 101.71 C 67.80 104.60 69.63 108.53 73.68 109.58 C 73.60 109.97 73.42 110.74 73.34 111.13 C 71.87 111.13 70.40 111.15 68.94 111.16 C 66.07 107.93 63.31 104.61 60.48 101.35 C 59.52 101.35 58.57 101.34 57.62 101.34 C 57.64 103.89 57.67 106.44 57.81 108.99 C 58.61 109.07 60.22 109.24 61.02 109.32 C 61.01 109.78 61.00 110.69 60.99 111.14 C 57.95 111.16 54.91 111.16 51.86 111.15 C 51.88 110.75 51.90 109.94 51.91 109.54 C 52.58 109.28 53.91 108.77 54.57 108.52 C 54.82 103.40 54.70 98.25 54.64 93.12 C 54.95 91.38 52.92 91.53 51.86 91.06 L 51.89 89.49 M 57.65 92.17 C 57.65 94.38 57.64 96.60 57.63 98.82 C 60.27 98.79 62.95 99.07 65.57 98.58 C 68.19 97.39 67.68 92.97 64.91 92.34 C 62.51 92.02 60.07 92.18 57.65 92.17 Z" />
<path fill="#ffffff" opacity="1.00" d=" M 98.39 91.10 C 98.47 90.69 98.62 89.86 98.69 89.45 C 101.44 89.45 104.20 89.46 106.93 89.81 C 105.98 90.65 104.98 91.43 103.93 92.13 C 103.75 97.65 103.77 103.17 103.92 108.68 C 105.31 109.04 106.18 109.89 106.52 111.23 C 103.72 110.91 100.08 112.36 97.94 109.99 C 98.67 109.69 100.13 109.07 100.87 108.77 C 100.88 103.13 100.83 97.50 100.90 91.86 C 100.27 91.67 99.02 91.29 98.39 91.10 Z" />
</g>
</svg>
