<?xml version="1.0" encoding="UTF-8" ?>
<!DOCTYPE svg PUBLIC "-//W3C//DTD SVG 1.1//EN" "http://www.w3.org/Graphics/SVG/1.1/DTD/svg11.dtd">
<svg width="450pt" height="115pt" viewBox="0 0 450 115" version="1.1" xmlns="http://www.w3.org/2000/svg">
<g id="#000000ff">
<path fill="#000000" opacity="1.00" d=" M 126.76 20.72 C 133.39 12.37 145.41 10.01 155.28 13.21 C 154.18 16.30 152.89 19.31 151.48 22.27 C 148.08 21.07 144.26 20.20 140.85 21.87 C 135.25 24.56 132.84 31.09 132.35 36.92 C 132.27 40.26 131.94 44.08 134.10 46.90 C 135.56 48.88 138.22 48.47 140.36 48.69 C 141.31 44.11 141.69 39.41 142.95 34.90 C 146.26 34.58 149.60 34.75 152.92 34.73 C 151.88 41.41 151.05 48.17 149.41 54.73 C 144.61 57.90 138.48 58.08 132.92 57.62 C 126.56 57.01 121.82 51.30 120.72 45.27 C 119.40 36.76 121.17 27.46 126.76 20.72 Z" />
<path fill="#000000" opacity="1.00" d=" M 301.12 16.12 C 306.94 11.09 315.55 10.83 322.49 13.50 C 321.56 16.27 320.70 19.06 319.87 21.87 C 316.84 21.17 313.40 19.51 310.47 21.32 C 308.38 22.45 307.72 25.77 309.69 27.31 C 312.90 30.58 317.91 32.35 319.49 37.02 C 321.66 43.49 319.32 51.68 313.20 55.15 C 306.88 58.89 298.73 58.52 292.15 55.68 C 293.05 52.74 293.97 49.82 294.85 46.88 C 298.04 48.08 301.48 49.97 304.95 48.86 C 308.37 48.07 309.90 43.07 307.38 40.59 C 304.13 37.29 299.16 35.31 297.57 30.63 C 296.46 25.64 297.01 19.65 301.12 16.12 Z" />
<path fill="#000000" opacity="1.00" d=" M 25.47 56.74 C 28.35 42.07 30.41 27.24 33.41 12.59 C 39.26 12.81 45.13 12.45 50.97 12.77 C 55.58 13.01 60.61 15.39 62.11 20.06 C 63.94 25.58 60.72 31.89 55.35 33.95 C 57.85 35.56 60.22 37.84 60.45 41.00 C 61.97 49.31 54.09 57.06 45.97 56.83 C 39.14 56.87 32.30 56.91 25.47 56.74 M 43.17 21.43 C 41.13 30.31 39.88 39.39 38.29 48.37 C 40.98 48.19 43.87 48.58 46.38 47.37 C 49.07 46.00 49.59 42.17 48.12 39.75 C 46.36 38.73 44.23 38.79 42.28 38.47 C 43.18 36.31 43.86 34.03 45.08 32.02 C 46.81 30.87 49.33 30.58 50.33 28.56 C 50.99 26.92 51.08 25.00 50.49 23.32 C 48.94 20.88 45.65 21.33 43.17 21.43 Z" />
<path fill="#000000" opacity="1.00" d=" M 63.23 56.84 C 65.85 42.19 68.15 27.47 70.99 12.87 C 76.32 12.41 81.69 12.70 87.04 12.68 C 91.93 12.77 97.68 14.34 100.06 19.04 C 103.59 26.42 98.99 36.21 91.08 38.30 C 94.45 43.85 95.37 50.37 97.47 56.42 C 93.62 57.03 89.75 57.49 85.85 57.77 C 84.80 53.19 83.94 48.57 82.63 44.06 C 82.37 42.39 80.51 42.00 79.35 41.13 C 80.27 38.89 81.17 36.65 82.08 34.42 C 84.34 33.78 87.10 33.45 88.27 31.10 C 89.84 28.46 90.67 24.13 87.91 21.98 C 85.59 21.16 83.08 21.45 80.67 21.32 C 78.58 33.15 76.54 44.99 74.46 56.82 C 70.72 56.85 66.97 56.86 63.23 56.84 Z" />
<path fill="#000000" opacity="1.00" d=" M 101.00 56.83 C 103.38 42.07 105.99 27.35 108.64 12.64 C 112.35 12.66 116.06 12.66 119.78 12.66 C 117.33 27.39 114.62 42.08 112.18 56.81 C 108.45 56.85 104.73 56.86 101.00 56.83 Z" />
<path fill="#000000" opacity="1.00" d=" M 155.14 56.83 C 157.63 42.10 160.22 27.38 162.79 12.66 C 166.50 12.66 170.21 12.66 173.92 12.65 C 173.14 18.32 171.97 23.92 171.13 29.57 C 174.53 29.57 177.94 29.56 181.35 29.56 C 182.41 23.91 183.18 18.20 184.47 12.60 C 188.18 12.67 191.89 12.67 195.60 12.66 C 193.14 27.37 190.37 42.02 188.06 56.75 C 184.23 56.88 180.41 56.87 176.58 56.81 C 177.67 51.09 178.61 45.34 179.62 39.61 C 176.24 39.60 172.86 39.60 169.49 39.54 C 168.21 45.25 167.38 51.05 166.37 56.81 C 162.62 56.85 158.88 56.86 155.14 56.83 Z" />
<path fill="#000000" opacity="1.00" d=" M 197.40 21.39 C 197.94 18.44 198.45 15.48 199.20 12.57 C 208.88 12.78 218.57 12.58 228.26 12.68 C 227.20 15.58 226.10 18.45 225.02 21.34 C 222.54 21.37 220.06 21.39 217.58 21.41 C 215.49 33.21 213.45 45.01 211.39 56.82 C 207.65 56.85 203.91 56.86 200.17 56.84 C 202.01 44.99 204.61 33.26 206.06 21.36 C 203.17 21.38 200.28 21.39 197.40 21.39 Z" />
<path fill="#000000" opacity="1.00" d=" M 223.12 56.83 C 225.62 42.10 228.18 27.37 230.80 12.65 C 234.49 12.66 238.19 12.66 241.90 12.65 C 239.58 27.41 236.81 42.09 234.33 56.83 C 230.59 56.85 226.86 56.86 223.12 56.83 Z" />
<path fill="#000000" opacity="1.00" d=" M 241.17 56.84 C 243.67 42.11 246.29 27.40 248.82 12.68 C 251.69 12.66 254.55 12.65 257.42 12.61 C 260.92 20.32 264.16 28.13 267.43 35.93 C 269.08 28.21 270.16 20.38 271.69 12.64 C 275.09 12.65 278.50 12.66 281.90 12.72 C 279.40 27.42 276.74 42.09 274.29 56.80 C 271.52 56.84 268.74 57.00 265.99 56.72 C 262.13 49.27 259.19 41.36 255.65 33.74 C 253.88 41.36 252.87 49.13 251.44 56.81 C 248.01 56.85 244.59 56.85 241.17 56.84 Z" />
<path fill="#000000" opacity="1.00" d=" M 324.62 21.37 C 325.18 18.43 325.72 15.49 326.43 12.58 C 336.15 12.76 345.88 12.60 355.60 12.67 C 354.47 15.58 353.33 18.47 352.17 21.37 C 349.70 21.38 347.23 21.40 344.76 21.44 C 342.81 33.25 340.68 45.03 338.63 56.82 C 334.88 56.85 331.12 56.85 327.37 56.83 C 329.50 45.03 331.47 33.20 333.62 21.40 C 330.62 21.39 327.62 21.38 324.62 21.37 Z" />
<path fill="#000000" opacity="1.00" d=" M 366.34 16.36 C 367.04 15.11 367.58 13.66 368.76 12.75 C 371.86 12.49 374.98 12.67 378.09 12.70 C 379.88 27.43 382.18 42.10 383.93 56.83 C 380.05 56.85 376.16 56.85 372.28 56.85 C 371.98 54.87 371.70 52.88 371.44 50.89 C 367.35 50.84 363.21 50.42 359.15 51.06 C 357.94 52.87 357.11 54.89 356.17 56.84 C 352.76 56.85 349.35 56.85 345.95 56.82 C 352.67 43.29 359.64 29.89 366.34 16.36 M 362.93 42.55 C 365.44 42.57 367.95 42.57 370.47 42.56 C 369.86 38.53 369.40 34.47 368.78 30.44 C 366.60 34.37 364.73 38.45 362.93 42.55 Z" />
<path fill="#000000" opacity="1.00" d=" M 394.24 12.98 C 399.10 12.25 404.06 12.80 408.97 12.65 C 414.19 12.60 420.46 13.83 423.21 18.81 C 426.93 26.28 422.28 36.28 414.19 38.33 C 417.84 43.75 418.58 50.40 420.71 56.45 C 416.86 56.99 413.01 57.49 409.14 57.78 C 407.98 52.70 406.86 47.61 405.49 42.58 C 404.48 42.17 403.48 41.76 402.48 41.36 C 403.45 39.09 404.16 36.69 405.45 34.58 C 407.44 33.60 410.15 33.49 411.36 31.36 C 412.94 28.92 413.42 25.55 412.14 22.89 C 410.07 20.80 406.81 21.38 404.16 21.44 C 401.41 33.11 400.04 45.10 397.65 56.86 C 393.91 56.85 390.18 56.85 386.44 56.83 C 389.17 42.23 391.31 27.52 394.24 12.98 Z" />
<path fill="#000000" opacity="1.00" d=" M 149.63 72.47 C 151.56 72.49 153.49 72.51 155.42 72.53 C 155.28 74.14 155.14 75.74 155.00 77.35 C 162.06 77.37 169.12 77.36 176.18 77.36 C 176.33 76.84 176.62 75.81 176.76 75.29 C 169.91 75.05 163.05 75.41 156.21 75.02 C 156.30 74.38 156.49 73.11 156.59 72.48 C 165.34 72.48 174.09 72.49 182.84 72.48 C 181.96 76.39 183.44 82.48 179.04 84.41 C 169.39 84.68 159.67 84.80 150.03 84.33 C 146.94 81.25 149.66 76.31 149.63 72.47 M 154.50 79.83 C 154.52 80.40 154.57 81.54 154.59 82.11 C 161.43 82.29 168.30 82.41 175.13 82.05 C 175.42 81.48 176.00 80.35 176.30 79.79 C 169.03 79.75 161.76 79.57 154.50 79.83 Z" />
<path fill="#000000" opacity="1.00" d=" M 189.51 72.79 C 191.12 72.53 192.62 72.65 194.02 73.13 C 194.88 76.85 193.17 80.65 193.18 84.43 C 193.84 84.25 195.17 83.88 195.84 83.70 C 196.58 81.20 196.81 78.58 197.13 76.00 C 196.76 75.49 196.03 74.47 195.66 73.96 C 197.12 71.66 200.53 73.28 202.76 72.70 C 201.66 81.14 200.65 89.61 199.18 97.99 C 198.58 101.40 194.54 100.54 192.06 100.70 C 189.94 100.43 185.78 101.49 186.15 98.07 C 186.77 89.60 188.34 81.21 189.51 72.79 M 191.30 98.75 C 191.96 98.52 193.27 98.07 193.93 97.84 C 194.89 94.07 195.15 90.14 195.57 86.28 C 194.91 86.49 193.57 86.91 192.91 87.12 C 191.81 90.89 191.58 94.85 191.30 98.75 Z" />
<path fill="#000000" opacity="1.00" d=" M 203.32 72.78 C 206.44 72.57 209.66 72.13 212.74 72.90 C 213.27 73.74 213.76 74.59 214.23 75.47 C 215.48 76.04 218.75 74.80 218.32 77.04 C 217.33 79.96 215.18 76.92 213.66 76.18 C 213.38 78.71 213.00 81.22 212.59 83.72 C 211.48 83.71 209.28 83.68 208.18 83.66 C 208.44 80.93 208.68 78.20 208.93 75.47 C 206.88 74.98 204.51 74.83 203.32 72.78 Z" />
<path fill="#000000" opacity="1.00" d=" M 213.99 72.75 C 216.99 72.97 221.35 71.20 223.47 73.98 C 223.67 77.24 222.91 80.46 222.49 83.68 C 219.23 83.50 215.97 83.42 212.72 83.32 C 214.17 81.45 216.30 80.98 218.54 81.27 C 218.64 79.36 218.75 77.44 218.88 75.53 C 217.04 74.99 215.03 74.58 213.99 72.75 Z" />
<path fill="#000000" opacity="1.00" d=" M 242.56 84.59 C 243.02 80.54 243.56 76.49 244.52 72.52 C 246.63 72.56 248.75 72.58 250.87 72.61 C 250.41 76.64 249.79 80.65 249.25 84.67 C 254.19 84.71 259.13 84.65 264.07 84.73 C 263.90 88.37 260.50 88.20 257.75 88.42 C 257.45 91.19 256.98 93.96 257.14 96.76 C 259.09 97.27 264.06 97.26 261.73 100.47 C 258.52 100.77 255.28 100.77 252.08 100.47 C 250.36 100.55 249.52 98.47 249.89 97.03 C 250.20 94.08 250.67 91.14 250.99 88.18 C 247.19 88.16 243.38 88.15 239.57 88.27 C 237.78 91.87 236.31 95.69 233.95 98.97 C 232.30 101.20 229.21 100.41 226.84 100.74 C 228.74 96.48 230.98 92.38 233.10 88.23 C 231.19 88.20 229.28 88.17 227.38 88.15 C 227.78 86.98 228.18 85.82 228.60 84.66 C 233.25 84.71 237.91 84.74 242.56 84.59 Z" />
<path fill="#000000" opacity="1.00" d=" M 271.03 72.77 C 272.93 72.50 274.85 72.49 276.77 72.39 C 276.71 73.24 276.57 74.92 276.51 75.77 C 279.54 75.77 282.59 75.81 285.60 75.40 C 282.98 74.31 280.09 74.66 277.34 74.60 L 277.32 72.55 C 281.85 72.51 286.39 72.51 290.93 72.53 C 290.39 75.38 291.11 80.51 286.96 80.63 C 281.67 80.61 276.21 81.34 271.04 80.12 C 269.96 77.81 270.72 75.17 271.03 72.77 M 275.61 77.53 C 278.58 79.18 282.28 78.84 285.35 77.59 C 282.12 77.15 278.84 77.15 275.61 77.53 Z" />
<path fill="#000000" opacity="1.00" d=" M 291.90 74.79 C 296.14 73.43 300.64 73.30 305.02 72.69 C 302.56 78.06 295.84 76.75 291.08 77.77 C 291.29 77.02 291.70 75.53 291.90 74.79 Z" />
<path fill="#000000" opacity="1.00" d=" M 230.86 73.51 C 232.91 73.91 235.96 72.62 237.12 74.94 C 237.54 77.69 237.44 80.49 237.50 83.26 C 235.46 83.21 233.43 83.16 231.40 83.09 C 231.27 79.89 231.12 76.70 230.86 73.51 Z" />
<path fill="#000000" opacity="1.00" d=" M 254.71 83.42 C 255.56 80.08 256.61 76.81 257.77 73.57 C 259.83 73.57 261.88 73.57 263.94 73.57 C 263.11 76.15 262.59 78.89 261.18 81.24 C 259.77 83.38 256.89 82.96 254.71 83.42 Z" />
<path fill="#000000" opacity="1.00" d=" M 203.02 75.72 C 204.78 75.64 206.55 75.67 208.31 75.83 C 209.05 79.89 203.98 77.96 203.02 75.72 Z" />
<path fill="#000000" opacity="1.00" d=" M 204.42 81.39 C 205.32 80.72 208.24 81.22 206.95 82.75 C 205.74 84.59 201.38 82.83 204.42 81.39 Z" />
<path fill="#000000" opacity="1.00" d=" M 269.17 82.84 C 273.71 82.20 278.31 80.78 282.91 81.69 C 285.25 82.08 287.61 82.26 289.98 82.37 C 289.76 82.91 289.34 83.98 289.12 84.52 C 282.79 84.14 276.19 85.51 270.07 83.68 C 270.06 84.57 270.04 85.46 270.01 86.36 C 271.75 85.17 273.94 85.55 275.92 85.34 C 275.70 87.17 275.48 88.99 275.27 90.82 C 277.46 90.84 279.66 90.93 281.85 90.69 C 282.26 89.67 282.54 88.61 282.86 87.56 C 280.66 87.53 278.47 87.51 276.28 87.50 L 276.42 85.43 C 280.63 85.39 284.84 85.37 289.05 85.51 C 288.55 87.77 288.76 90.33 287.42 92.32 C 285.61 93.49 283.36 93.11 281.32 93.31 C 280.74 95.69 281.07 98.62 279.10 100.40 C 277.16 100.67 275.20 100.67 273.25 100.75 C 274.27 98.35 275.09 95.88 275.65 93.35 C 273.53 93.10 271.42 92.87 269.31 92.63 C 269.29 89.36 269.23 86.10 269.17 82.84 Z" />
<path fill="#000000" opacity="1.00" d=" M 290.67 85.14 C 294.81 83.78 299.26 83.60 303.57 83.16 C 301.12 88.42 294.46 87.21 289.68 87.94 C 289.93 87.24 290.42 85.84 290.67 85.14 Z" />
<path fill="#000000" opacity="1.00" d=" M 203.72 84.27 C 205.46 84.26 207.20 84.26 208.94 84.29 C 210.40 86.94 212.93 84.11 214.97 84.22 C 217.65 84.76 220.24 85.68 222.92 86.24 C 221.11 87.33 219.22 88.27 217.38 89.31 C 218.61 89.45 221.07 89.73 222.30 89.87 C 220.76 91.58 218.52 92.27 216.53 93.27 C 218.26 93.52 220.00 93.79 221.73 94.06 C 220.24 95.81 217.94 96.27 215.88 97.01 C 217.65 97.55 219.43 98.09 221.12 98.89 C 219.13 100.66 216.42 100.18 213.99 100.26 C 209.56 100.16 205.15 100.65 200.72 100.66 C 201.84 95.22 201.38 89.42 203.72 84.27 M 209.14 88.11 C 207.93 89.73 211.00 90.57 211.91 89.45 C 213.16 87.83 210.03 86.92 209.14 88.11 M 207.53 93.52 C 209.14 93.56 210.76 93.56 212.37 93.51 C 211.31 91.32 208.64 91.47 207.53 93.52 M 206.64 97.50 C 208.30 97.60 210.05 97.95 211.65 97.27 C 210.96 94.82 207.95 96.46 206.64 97.50 Z" />
<path fill="#000000" opacity="1.00" d=" M 148.91 85.73 C 150.38 85.62 151.84 85.51 153.31 85.40 C 153.77 85.75 154.69 86.46 155.15 86.81 C 159.18 87.22 162.91 85.49 166.87 85.27 C 170.97 88.26 176.49 86.04 181.19 86.77 C 180.91 87.35 180.33 88.50 180.04 89.08 C 175.84 89.52 171.59 89.19 167.37 89.27 C 167.29 90.04 167.13 91.59 167.05 92.36 C 171.41 92.38 175.77 92.27 180.13 92.57 C 179.24 93.41 178.56 94.85 177.11 94.69 C 173.64 94.90 170.17 94.73 166.70 94.70 C 166.51 95.70 166.32 96.69 166.13 97.69 C 170.78 97.71 175.43 97.66 180.08 97.73 C 179.87 99.56 179.18 101.05 177.07 100.59 C 166.46 100.66 155.84 100.60 145.23 100.59 C 145.41 99.64 145.60 98.68 145.79 97.73 C 150.58 97.59 155.39 97.93 160.16 97.52 C 160.35 96.83 160.71 95.45 160.89 94.76 C 156.28 94.73 151.67 94.76 147.06 94.74 C 146.88 91.60 147.50 88.54 148.91 85.73 M 147.27 92.04 C 151.68 93.23 156.56 91.91 161.15 92.35 C 161.29 91.33 161.45 90.31 161.60 89.29 C 156.57 88.59 151.80 89.98 147.27 92.04 Z" />
<path fill="#000000" opacity="1.00" d=" M 269.05 95.08 C 269.73 92.81 272.53 94.06 274.22 93.70 C 273.64 97.35 271.53 100.93 267.38 101.00 C 267.88 99.01 268.25 96.97 269.05 95.08 Z" />
<path fill="#000000" opacity="1.00" d=" M 282.49 93.49 C 283.83 94.27 286.44 93.98 286.69 96.01 C 286.98 97.51 287.21 99.03 287.37 100.55 C 285.65 100.57 283.93 100.57 282.21 100.55 C 282.24 98.19 282.33 95.84 282.49 93.49 Z" />
<path fill="#000000" opacity="1.00" d=" M 289.09 97.30 C 293.34 96.24 297.72 95.75 302.08 95.42 C 299.51 100.72 292.80 99.42 288.03 100.56 C 288.30 99.74 288.83 98.12 289.09 97.30 Z" />
</g>
</svg>
