<?xml version="1.0" encoding="UTF-8" ?>
<!DOCTYPE svg PUBLIC "-//W3C//DTD SVG 1.1//EN" "http://www.w3.org/Graphics/SVG/1.1/DTD/svg11.dtd">
<svg width="2364pt" height="496pt" viewBox="0 0 2364 496" version="1.1" xmlns="http://www.w3.org/2000/svg">
<g id="#1f1a17ff">
<path fill="#1f1a17" opacity="1.00" d=" M 1129.60 124.86 C 1153.70 119.85 1178.50 119.75 1202.99 121.02 C 1222.91 122.29 1243.54 124.73 1261.17 134.83 C 1281.73 146.10 1295.92 166.47 1303.17 188.42 C 1279.41 192.54 1255.71 196.95 1231.95 201.02 C 1226.75 189.69 1217.89 179.76 1206.46 174.52 C 1193.93 168.55 1179.58 167.61 1165.95 169.12 C 1150.21 170.97 1135.17 178.62 1124.78 190.64 C 1116.52 200.22 1111.35 212.13 1108.49 224.37 C 1104.88 239.98 1104.68 256.12 1105.16 272.06 C 1105.87 287.02 1108.22 302.12 1114.00 316.00 C 1119.51 329.36 1129.90 340.58 1142.75 347.16 C 1157.79 355.14 1175.47 356.49 1192.13 354.55 C 1211.76 352.33 1229.73 343.20 1246.37 333.04 C 1246.37 320.03 1246.38 307.02 1246.36 294.01 C 1226.55 293.95 1206.74 294.11 1186.94 293.93 C 1186.94 279.01 1186.94 264.10 1186.94 249.18 C 1227.79 249.18 1268.65 249.17 1309.51 249.19 C 1309.48 286.24 1309.53 323.28 1309.48 360.33 C 1292.43 371.54 1274.82 382.15 1255.84 389.78 C 1237.80 397.14 1218.47 400.88 1199.10 402.34 C 1176.06 403.99 1152.67 403.73 1129.97 399.07 C 1111.28 395.31 1093.20 387.71 1078.25 375.76 C 1059.83 361.19 1047.21 340.40 1039.54 318.42 C 1031.50 294.87 1029.46 269.58 1031.46 244.87 C 1033.59 220.86 1040.12 196.76 1053.44 176.45 C 1070.68 150.12 1098.73 131.06 1129.60 124.86 Z" />
<path fill="#1f1a17" opacity="1.00" d=" M 2055.54 121.73 C 2091.79 117.05 2129.63 127.16 2158.73 149.26 C 2187.28 170.55 2207.48 202.81 2213.78 237.90 C 2220.26 272.54 2213.11 309.46 2194.20 339.18 C 2174.90 370.09 2143.41 393.15 2108.04 401.97 C 2073.44 410.88 2035.59 405.96 2004.39 388.58 C 1970.81 370.18 1945.21 337.83 1935.23 300.84 C 1924.90 263.54 1930.78 222.12 1951.21 189.23 C 1973.44 152.53 2012.88 126.79 2055.54 121.73 M 2053.58 134.88 C 2027.12 138.84 2002.02 151.30 1982.86 169.96 C 1957.75 193.90 1942.92 228.26 1943.06 262.99 C 1942.66 298.07 1957.53 332.90 1982.92 357.06 C 2008.35 381.90 2044.37 395.42 2079.87 393.35 C 2115.32 391.78 2149.64 374.64 2172.42 347.48 C 2194.60 321.68 2205.79 286.88 2202.89 252.98 C 2200.32 218.76 2183.27 186.02 2156.96 164.05 C 2128.83 140.02 2090.12 129.13 2053.58 134.88 Z" />
<path fill="#1f1a17" opacity="1.00" d=" M 170.97 125.21 C 197.80 125.26 224.64 125.19 251.47 125.24 C 270.51 157.28 289.72 189.22 308.84 221.21 C 310.48 224.02 312.08 226.86 314.00 229.50 C 335.12 194.92 355.70 160.01 376.51 125.24 C 403.15 125.23 429.80 125.17 456.44 125.27 C 422.86 175.06 389.57 225.06 356.12 274.95 C 353.54 278.53 350.68 282.37 350.82 287.03 C 350.82 324.18 350.81 361.33 350.82 398.49 C 326.13 398.47 301.43 398.59 276.74 398.43 C 276.75 361.27 276.74 324.10 276.74 286.94 C 276.77 284.10 275.84 281.29 274.20 278.98 C 239.75 227.75 205.48 176.40 170.97 125.21 Z" />
<path fill="#1f1a17" opacity="1.00" d=" M 718.00 125.22 C 741.90 125.24 765.80 125.18 789.70 125.25 C 829.92 183.34 870.22 241.38 910.45 299.45 C 911.71 301.42 913.06 303.35 914.85 304.89 C 915.12 245.00 914.88 185.11 914.97 125.23 C 936.32 125.22 957.67 125.22 979.02 125.23 C 979.03 216.28 979.03 307.34 979.03 398.39 C 954.91 398.65 930.79 398.40 906.67 398.53 C 866.80 339.95 827.31 281.09 787.55 222.44 C 787.09 221.98 786.18 221.05 785.73 220.58 C 785.44 279.83 785.69 339.08 785.60 398.33 C 763.07 398.62 740.53 398.60 718.00 398.34 C 717.99 307.30 717.98 216.26 718.00 125.22 Z" />
<path fill="#1f1a17" opacity="1.00" d=" M 1359.47 125.23 C 1383.27 125.28 1407.08 125.10 1430.88 125.32 C 1434.71 129.81 1437.70 135.01 1441.18 139.80 C 1476.76 191.20 1512.34 242.59 1547.90 293.99 C 1550.61 297.82 1553.10 301.82 1556.10 305.44 C 1556.33 245.36 1556.15 185.28 1556.19 125.20 C 1577.52 125.25 1598.86 125.21 1620.19 125.22 C 1620.17 216.29 1620.19 307.36 1620.18 398.43 C 1596.10 398.55 1572.02 398.55 1547.94 398.43 C 1508.35 339.86 1468.77 281.28 1429.19 222.70 C 1428.56 221.93 1427.89 221.23 1427.16 220.59 C 1426.94 279.87 1427.13 339.15 1427.07 398.43 C 1404.55 398.55 1382.03 398.56 1359.52 398.42 C 1359.41 307.36 1359.51 216.29 1359.47 125.23 Z" />
<path fill="#1f1a17" opacity="1.00" d=" M 1644.95 125.22 C 1669.52 125.22 1694.10 125.23 1718.67 125.22 C 1718.65 181.15 1718.65 237.08 1718.66 293.02 C 1718.57 303.82 1720.48 314.81 1725.52 324.45 C 1732.79 338.66 1747.47 348.12 1763.10 350.41 C 1778.78 352.67 1795.86 351.18 1809.44 342.37 C 1818.19 336.80 1824.92 328.20 1828.32 318.40 C 1831.37 310.32 1832.45 301.64 1832.41 293.04 C 1832.42 237.10 1832.42 181.16 1832.41 125.22 C 1856.98 125.22 1881.55 125.22 1906.13 125.23 C 1906.08 181.47 1906.19 237.72 1906.07 293.96 C 1905.32 315.18 1900.67 336.87 1889.14 354.97 C 1881.69 366.93 1871.41 376.95 1859.95 385.06 C 1845.67 395.24 1828.15 399.37 1811.04 401.74 C 1792.75 404.13 1774.23 403.77 1755.88 402.33 C 1737.25 400.92 1718.14 398.95 1701.05 390.84 C 1686.01 383.49 1673.47 371.69 1663.80 358.15 C 1658.67 351.06 1654.86 343.07 1652.39 334.69 C 1648.44 321.12 1645.41 307.17 1644.99 293.01 C 1644.89 237.08 1644.97 181.15 1644.95 125.22 Z" />
<path fill="#1f1a17" opacity="1.00" d=" M 544.44 130.53 C 582.76 127.60 621.99 141.69 649.64 168.39 C 674.16 191.35 689.78 223.57 692.52 257.06 C 695.87 293.73 683.42 331.40 659.26 359.12 C 634.01 388.66 595.90 406.81 556.99 407.30 C 524.04 408.08 491.03 396.39 465.81 375.20 C 452.27 363.91 440.85 350.08 432.44 334.59 C 419.89 311.63 414.11 285.04 416.03 258.94 C 418.06 229.19 430.21 200.29 449.87 177.90 C 473.54 150.50 508.29 132.98 544.44 130.53 M 548.36 141.50 C 509.17 143.05 471.54 164.14 449.44 196.49 C 433.00 220.06 425.02 249.37 427.21 278.02 C 428.95 303.01 438.40 327.36 453.87 347.05 C 474.18 373.24 505.04 391.01 537.97 395.10 C 575.44 400.21 614.81 387.35 642.03 361.10 C 667.39 337.32 682.27 302.75 681.79 267.96 C 681.85 232.38 665.80 197.30 639.18 173.77 C 614.67 151.67 581.32 139.81 548.36 141.50 Z" />
<path fill="#1f1a17" opacity="1.00" d=" M 2000.19 167.41 C 2018.84 154.47 2040.62 145.29 2063.49 144.15 C 2075.98 163.63 2088.95 182.80 2101.64 202.16 C 2067.82 190.57 2034.03 178.91 2000.19 167.41 Z" />
<path fill="#1f1a17" opacity="1.00" d=" M 2078.28 143.33 C 2100.86 145.19 2123.11 152.57 2141.54 165.92 C 2139.02 189.01 2136.16 212.06 2133.56 235.15 C 2115.12 204.55 2096.77 173.89 2078.28 143.33 Z" />
<path fill="#1f1a17" opacity="1.00" d=" M 539.58 152.79 C 577.49 147.61 617.24 162.88 642.22 191.80 C 664.98 217.34 675.48 253.24 669.89 287.02 C 664.80 320.16 644.47 350.42 615.98 368.02 C 594.15 381.72 567.67 387.82 542.05 385.02 C 510.90 381.86 481.52 365.37 462.29 340.71 C 449.63 324.60 441.27 305.13 438.48 284.82 C 434.61 257.77 440.76 229.43 455.50 206.42 C 473.78 177.30 505.40 156.95 539.58 152.79 M 543.17 197.27 C 522.99 200.28 504.51 212.44 493.49 229.57 C 483.72 244.58 479.88 263.31 482.98 280.96 C 485.92 298.63 495.81 315.00 509.99 325.92 C 520.04 333.76 532.21 338.88 544.87 340.50 C 561.22 342.72 578.30 339.07 592.31 330.35 C 606.53 321.63 617.54 307.85 622.90 292.06 C 628.14 276.74 628.03 259.64 622.52 244.41 C 617.28 229.63 607.03 216.71 593.88 208.18 C 579.12 198.40 560.64 194.48 543.17 197.27 Z" />
<path fill="#1f1a17" opacity="1.00" d=" M 2153.52 175.09 C 2169.57 191.07 2181.92 210.97 2187.43 233.05 C 2170.53 249.03 2153.59 264.97 2136.65 280.92 C 2142.38 245.66 2147.92 210.37 2153.52 175.09 Z" />
<path fill="#1f1a17" opacity="1.00" d=" M 1956.18 235.16 C 1962.13 213.29 1973.32 192.62 1989.89 176.97 C 2012.07 183.79 2034.26 190.58 2056.49 197.26 C 2023.07 209.94 1989.60 222.50 1956.18 235.16 Z" />
<path fill="#1f1a17" opacity="1.00" d=" M 1954.18 250.06 C 1975.55 240.95 1996.94 231.87 2018.31 222.74 C 2000.77 253.86 1983.34 285.05 1965.87 316.21 C 1956.36 295.65 1951.65 272.69 1954.18 250.06 Z" />
<path fill="#1f1a17" opacity="1.00" d=" M 2109.70 317.99 C 2136.72 294.62 2163.71 271.20 2190.72 247.81 C 2192.74 270.39 2189.28 293.63 2179.20 314.05 C 2156.03 315.29 2132.86 316.70 2109.70 317.99 Z" />
<path fill="#1f1a17" opacity="1.00" d=" M 1973.94 328.91 C 1984.41 308.18 1994.99 287.51 2005.44 266.77 C 2012.13 301.85 2018.77 336.94 2025.51 372.01 C 2004.96 362.43 1986.57 347.86 1973.94 328.91 Z" />
<path fill="#1f1a17" opacity="1.00" d=" M 2023.92 308.79 C 2051.65 331.32 2079.34 353.90 2107.05 376.46 C 2085.14 382.28 2061.73 382.95 2039.86 376.62 C 2034.49 354.02 2029.30 331.38 2023.92 308.79 Z" />
<path fill="#1f1a17" opacity="1.00" d=" M 2065.13 328.95 C 2100.88 328.43 2136.63 327.88 2172.39 327.33 C 2163.71 339.16 2153.76 350.23 2141.72 358.73 C 2135.24 363.43 2128.20 367.29 2120.95 370.67 C 2102.35 356.75 2083.74 342.85 2065.13 328.95 Z" />
</g>
</svg>
