<?xml version="1.0" encoding="UTF-8" ?>
<!DOCTYPE svg PUBLIC "-//W3C//DTD SVG 1.1//EN" "http://www.w3.org/Graphics/SVG/1.1/DTD/svg11.dtd">
<svg width="528pt" height="92pt" viewBox="0 0 528 92" version="1.1" xmlns="http://www.w3.org/2000/svg">
<g id="#00adaeff">
<path fill="#00adae" opacity="1.00" d=" M 142.19 1.99 C 155.10 -0.79 169.12 2.48 179.54 10.57 C 187.88 17.00 193.96 26.35 196.22 36.65 C 199.00 49.04 196.38 62.60 188.86 72.88 C 181.09 84.00 168.09 91.15 154.57 92.00 L 148.43 92.00 C 130.33 91.01 113.53 78.26 108.02 60.95 C 103.51 48.35 105.47 33.90 112.51 22.61 C 119.04 12.08 130.02 4.40 142.19 1.99 M 154.27 19.27 C 142.32 22.19 133.02 33.63 133.05 46.00 C 132.52 57.95 140.78 69.38 152.02 73.17 C 163.41 77.39 177.22 73.12 184.28 63.24 C 190.81 54.65 191.57 42.20 186.20 32.86 C 180.21 21.84 166.38 15.88 154.27 19.27 Z" />
<path fill="#00adae" opacity="1.00" d=" M 397.55 12.25 C 402.06 12.22 406.57 12.22 411.08 12.25 C 411.05 13.98 411.01 15.71 410.98 17.44 C 420.84 17.48 430.70 17.42 440.56 17.48 C 440.50 20.67 440.50 23.86 440.50 27.05 C 430.66 27.07 420.82 27.01 410.98 27.09 C 411.06 30.20 411.06 33.31 411.00 36.41 C 414.11 36.50 417.23 36.58 420.35 36.73 C 421.81 33.65 424.16 30.23 428.02 30.43 C 431.78 30.18 434.52 33.13 435.74 36.38 C 438.17 36.45 440.62 36.47 443.06 36.51 C 443.05 39.83 443.05 43.15 443.06 46.47 C 427.09 46.53 411.12 46.42 395.16 46.52 C 393.53 46.25 392.92 47.99 392.07 49.02 C 390.64 50.87 389.74 53.04 389.35 55.34 C 406.30 55.48 423.26 55.33 440.22 55.42 C 440.19 58.77 440.19 62.13 440.22 65.48 C 423.39 65.52 406.55 65.48 389.71 65.51 C 390.00 68.47 389.04 71.84 390.40 74.56 C 407.71 75.16 425.09 74.64 442.43 74.82 C 442.21 77.31 442.94 80.17 441.30 82.32 C 439.96 84.33 437.33 84.78 435.09 84.74 C 418.71 84.72 402.32 84.77 385.95 84.72 C 382.08 84.81 378.05 82.20 377.43 78.21 C 376.46 73.45 377.20 68.56 377.10 63.75 C 375.35 64.08 373.61 64.40 371.88 64.71 C 371.13 61.43 370.33 58.16 369.42 54.92 C 374.13 53.51 378.02 50.39 380.97 46.52 C 377.32 46.45 373.67 46.51 370.03 46.43 C 370.15 43.12 370.13 39.80 370.06 36.49 C 379.28 36.41 388.49 36.55 397.71 36.40 C 397.61 33.29 397.62 30.18 397.63 27.07 C 389.21 26.98 380.79 27.19 372.37 26.93 C 372.40 23.78 372.39 20.63 372.33 17.48 C 380.79 17.41 389.25 17.50 397.71 17.43 C 397.65 15.71 397.60 13.98 397.55 12.25 Z" />
<path fill="#00adae" opacity="1.00" d=" M 462.20 13.69 C 466.32 13.70 470.45 13.70 474.58 13.70 C 474.52 17.56 474.56 21.41 474.45 25.26 C 484.94 30.13 488.63 44.19 483.10 54.02 C 481.26 57.63 478.03 60.24 474.53 62.13 C 474.55 66.39 474.46 70.66 474.63 74.93 C 477.60 73.76 476.84 70.73 476.81 68.21 C 479.14 68.23 481.48 68.24 483.83 68.27 C 483.66 72.15 483.90 76.05 483.64 79.93 C 482.96 82.75 479.99 84.72 477.14 84.69 C 468.43 84.83 459.72 84.75 451.01 84.67 C 450.26 81.37 449.45 78.08 448.63 74.80 C 453.16 74.82 457.70 74.81 462.24 74.81 C 462.23 70.93 462.23 67.05 462.22 63.16 C 455.96 61.61 450.01 57.70 447.35 51.64 C 443.87 44.61 445.71 35.60 451.35 30.23 C 454.28 27.18 458.26 25.49 462.26 24.32 C 462.22 20.78 462.22 17.23 462.20 13.69 M 454.02 34.10 C 449.47 37.03 447.30 43.30 449.70 48.28 C 451.71 53.25 457.10 55.76 462.22 55.92 C 462.24 47.77 462.23 39.63 462.22 31.48 C 459.39 31.95 456.39 32.32 454.02 34.10 Z" />
<path fill="#00adae" opacity="1.00" d=" M 500.64 18.25 C 500.62 16.45 500.62 14.64 500.63 12.84 C 504.72 12.85 508.81 12.84 512.91 12.85 C 512.89 14.62 512.87 16.39 512.87 18.16 C 516.78 18.16 520.68 18.15 524.60 18.17 C 524.57 21.53 524.56 24.89 524.61 28.25 C 520.74 28.26 516.87 28.25 513.01 28.28 C 512.94 31.13 512.91 33.97 512.90 36.82 C 517.11 36.84 521.32 36.83 525.54 36.83 C 525.53 40.13 525.53 43.43 525.58 46.73 C 513.74 46.81 501.90 46.75 490.06 46.77 C 490.19 43.42 489.87 40.06 488.91 36.84 C 492.83 36.83 496.75 36.84 500.68 36.82 C 500.64 33.96 500.65 31.11 500.68 28.25 C 496.77 28.17 492.87 28.20 488.97 28.20 C 488.96 24.87 488.89 21.54 488.72 18.22 C 492.69 18.23 496.66 18.22 500.64 18.25 Z" />
<path fill="#00adae" opacity="1.00" d=" M 2.01 13.81 C 8.71 13.80 15.40 13.80 22.10 13.81 C 21.89 32.93 22.13 52.05 21.92 71.17 C 26.83 71.18 31.74 71.24 36.65 71.10 C 44.47 51.99 52.55 32.98 60.37 13.87 C 67.67 13.72 74.98 13.87 82.28 13.77 C 92.09 37.73 101.50 61.85 111.32 85.81 C 104.42 85.74 97.53 85.85 90.64 85.74 C 83.94 69.34 77.31 52.91 70.41 36.60 C 63.90 52.97 57.68 69.46 51.15 85.82 C 34.78 85.74 18.40 85.81 2.03 85.78 C 2.05 61.79 2.09 37.80 2.01 13.81 Z" />
<path fill="#00adae" opacity="1.00" d=" M 194.60 13.77 C 202.48 13.82 210.36 13.80 218.24 13.79 C 224.22 29.47 229.54 45.39 235.75 60.97 C 240.71 45.21 245.99 29.54 251.02 13.80 C 256.83 13.80 262.63 13.82 268.44 13.77 C 273.67 29.54 278.95 45.29 284.04 61.11 C 290.82 45.37 297.41 29.55 304.12 13.79 C 311.48 13.81 318.84 13.82 326.20 13.78 C 335.99 37.77 345.61 61.83 355.38 85.82 C 348.38 85.77 341.37 85.80 334.37 85.80 C 327.61 69.50 320.85 53.20 314.06 36.92 C 307.58 53.23 300.85 69.45 294.31 85.75 C 287.31 85.84 280.30 85.77 273.30 85.79 C 268.78 73.36 264.41 60.87 259.84 48.45 C 255.26 60.91 250.59 73.33 246.00 85.79 C 238.80 85.79 231.61 85.80 224.42 85.78 C 214.44 61.80 204.61 37.75 194.60 13.77 Z" />
<path fill="#00adae" opacity="1.00" d=" M 500.63 55.28 C 500.62 53.49 500.62 51.69 500.64 49.90 C 504.71 49.90 508.80 49.90 512.88 49.90 C 512.88 51.67 512.87 53.44 512.87 55.21 C 516.92 55.21 520.97 55.20 525.02 55.21 C 524.87 58.56 524.87 61.91 524.95 65.26 C 520.95 65.29 516.96 65.27 512.97 65.31 C 512.94 68.49 512.91 71.68 512.91 74.86 C 517.26 74.83 521.62 74.82 525.98 74.84 C 525.94 78.13 525.94 81.43 525.97 84.73 C 513.13 84.72 500.29 84.78 487.45 84.69 C 487.60 81.42 487.62 78.15 487.60 74.88 C 491.96 74.88 496.32 74.84 500.69 74.80 C 500.63 71.60 500.63 68.40 500.68 65.21 C 496.67 65.18 492.67 65.19 488.66 65.19 C 488.74 61.87 488.74 58.55 488.73 55.23 C 492.70 55.24 496.66 55.29 500.63 55.28 Z" />
</g>
</svg>
